<svg width="0" height="0" class="hidden">
  <symbol fill="none" xmlns="http://www.w3.org/2000/svg" viewBox="0 0 100 100" id="cogwheel1">
    <path d="M23.2695 88.425C42.4833 88.425 55.6778 98.3778 64.9361 98.3778C74.1945 98.3778 93.6389 93.0555 93.6389 50.4639C93.6389 7.87221 67.4806 1.61943 57.2972 1.61943C9.61113 1.61943 -10.7583 88.425 23.2695 88.425V88.425Z" fill="#EFEFEF"></path>
    <path d="M88.8005 21.3403L90.7647 19.3761L94.6931 23.3045L92.7289 25.2687L88.8005 21.3403Z" fill="#A4AFC1"></path>
    <path d="M77.5079 10.0458L79.4721 8.08165L83.4005 12.01L81.4363 13.9742L77.5079 10.0458Z" fill="#A4AFC1"></path>
    <path d="M88.8018 12.5027L92.7302 8.57435L94.6944 10.5385L90.766 14.4669L88.8018 12.5027Z" fill="#A4AFC1"></path>
    <path d="M54.861 72.9166C54.861 72.9166 55.5416 77.8194 58.9722 81.25H59.0277H40.9722C44.4444 77.7778 45.0833 72.9166 45.0833 72.9166H54.861Z" fill="#EE4248"></path>
    <path d="M78.4722 29.8611C80 29.8611 81.25 31.1111 81.25 32.6389V63.1945H18.75V32.6389C18.75 31.1111 20 29.8611 21.5278 29.8611H78.4722Z" fill="#F3F3F1"></path>
    <path d="M21.5278 72.9167H78.4722C80.0056 72.9167 81.25 71.6722 81.25 70.1389V63.1944H18.75V70.1389C18.75 71.6722 19.9944 72.9167 21.5278 72.9167Z" fill="#EE4248"></path>
    <path d="M69.4445 39.5833C73.6634 39.5833 77.0834 36.1633 77.0834 31.9444C77.0834 27.7256 73.6634 24.3055 69.4445 24.3055C65.2257 24.3055 61.8057 27.7256 61.8057 31.9444C61.8057 36.1633 65.2257 39.5833 69.4445 39.5833Z" fill="#EE4248"></path>
    <path d="M32.7889 56.25C29.6306 56.25 27.0834 53.8306 27.0834 50.8333C27.0834 47.8361 29.6334 45.4167 32.7889 45.4167H32.8917C33.5 41.325 37.1917 38.1945 41.6667 38.1945C45.2167 38.1945 48.2862 40.1695 49.6945 43.0333C53.3584 43.225 56.2501 46.1028 56.2501 49.6306C56.2501 53.2889 53.1306 56.25 49.2751 56.25H32.7889Z" fill="#EE4248"></path>
    <path d="M45.0833 72.9166C45.0833 72.9166 44.4444 77.7778 40.9722 81.25H47.2222C50.6944 77.7778 51.3333 72.9166 51.3333 72.9166H45.0833Z" fill="#EE4248"></path>
    <path d="M25 70.1389V63.1944H18.75V70.1389C18.75 71.6722 19.9944 72.9167 21.5278 72.9167H27.7778C26.2444 72.9167 25 71.6722 25 70.1389Z" fill="#EE4248"></path>
    <path d="M68.0557 31.9444C68.0557 28.8417 69.914 26.1833 72.5696 24.9889C71.614 24.5583 70.5612 24.3055 69.4446 24.3055C65.2251 24.3055 61.8057 27.725 61.8057 31.9444C61.8057 36.1639 65.2251 39.5833 69.4446 39.5833C70.5612 39.5833 71.614 39.3305 72.5696 38.9C69.914 37.7055 68.0557 35.0472 68.0557 31.9444Z" fill="#EE4248"></path>
    <path d="M33.3334 50.8333C33.3334 47.8361 35.8834 45.4167 39.0389 45.4167H39.1417C39.6 42.3417 41.7973 39.8111 44.7612 38.7417C43.7945 38.4 42.7584 38.1945 41.6667 38.1945C37.1889 38.1945 33.5 41.325 32.8917 45.4167H32.7889C29.6306 45.4167 27.0834 47.8361 27.0834 50.8333C27.0834 53.8306 29.6334 56.25 32.7889 56.25H39.0389C35.8834 56.25 33.3334 53.8306 33.3334 50.8333Z" fill="#EE4248"></path>
    <path d="M27.7778 29.8611H21.5278C20 29.8611 18.75 31.1111 18.75 32.6389V63.1945H25V32.6389C25 31.1111 26.25 29.8611 27.7778 29.8611Z" fill="#D5DBE1"></path>
    <path d="M78.4722 75H21.5277C18.8472 75 16.6666 72.8195 16.6666 70.1389V32.6389C16.6666 29.9583 18.8472 27.7778 21.5277 27.7778H50V31.9444H21.5277C21.15 31.9444 20.8333 32.2611 20.8333 32.6389V70.1389C20.8333 70.5167 21.15 70.8333 21.5277 70.8333H78.4722C78.85 70.8333 79.1666 70.5167 79.1666 70.1389V47.2222H83.3333V70.1389C83.3333 72.8195 81.1527 75 78.4722 75Z" fill="black"></path>
    <path d="M18.75 61.1111H81.25V65.2777H18.75V61.1111Z" fill="black"></path>
    <path d="M59.0277 83.3334H40.9721C40.1277 83.3334 39.3694 82.825 39.0471 82.0473C38.7277 81.2695 38.9027 80.3723 39.4999 79.7778C42.4055 76.8723 43.0166 72.6806 43.0221 72.6389L47.1499 73.1889C47.1305 73.3528 46.7416 76.15 45.086 79.1667H54.8694C53.2277 76.1667 52.8221 73.3667 52.7971 73.2056L56.9221 72.625C56.9305 72.6667 57.5416 76.6778 60.2166 79.5389C60.7583 79.9167 61.111 80.5417 61.111 81.25C61.111 82.4 60.1777 83.3334 59.0277 83.3334Z" fill="black"></path>
    <path d="M69.4444 41.6667C64.0833 41.6667 59.7222 37.3056 59.7222 31.9445C59.7222 26.5833 64.0833 22.2222 69.4444 22.2222C74.8055 22.2222 79.1666 26.5833 79.1666 31.9445C79.1666 37.3056 74.8055 41.6667 69.4444 41.6667ZM69.4444 26.3889C66.3805 26.3889 63.8888 28.8806 63.8888 31.9445C63.8888 35.0083 66.3805 37.5 69.4444 37.5C72.5083 37.5 75 35.0083 75 31.9445C75 28.8806 72.5083 26.3889 69.4444 26.3889Z" fill="black"></path>
    <path d="M67.3611 37.5H71.5277V47.2222H67.3611V37.5Z" fill="black"></path>
    <path d="M67.3611 16.6667H71.5277V26.3889H67.3611V16.6667Z" fill="black"></path>
    <path d="M73.2604 27.2522L82.1294 22.506L84.0947 26.1786L75.2257 30.9248L73.2604 27.2522Z" fill="black"></path>
    <path d="M54.8456 37.6523L63.7145 32.9061L65.6799 36.5786L56.8109 41.3249L54.8456 37.6523Z" fill="black"></path>
    <path d="M54.8517 26.2177L56.817 22.5451L65.686 27.2914L63.7207 30.9639L54.8517 26.2177Z" fill="black"></path>
    <path d="M73.2767 36.6083L75.2421 32.9358L84.1111 37.682L82.1457 41.3545L73.2767 36.6083Z" fill="black"></path>
    <path d="M49.2778 58.3333H32.7778C28.4889 58.3333 25 54.9694 25 50.8333C25 47.2139 27.6722 44.1861 31.2111 43.4833C32.6139 39.1833 36.8417 36.1111 41.6667 36.1111C44.7389 36.1111 47.6805 37.35 49.7333 39.5111L46.7111 42.3805C45.4417 41.0444 43.6028 40.2778 41.6667 40.2778C38.3 40.2778 35.4139 42.6194 34.95 45.725C34.7944 46.7444 33.9194 47.5 32.8889 47.5C30.7861 47.5 29.1667 48.9944 29.1667 50.8333C29.1667 52.6722 30.7861 54.1666 32.7778 54.1666H49.2778C51.975 54.1666 54.1667 52.1361 54.1667 49.6389C54.1667 49.2639 54.1278 48.9611 54.05 48.6778L58.0583 47.5444C58.2444 48.1972 58.3333 48.8833 58.3333 49.6389C58.3333 54.4333 54.2722 58.3333 49.2778 58.3333V58.3333Z" fill="black"></path>
  </symbol>
  <symbol fill="none" xmlns="http://www.w3.org/2000/svg" viewBox="0 0 20 16" id="mail">
    <path fill-rule="evenodd" clip-rule="evenodd" d="M0 2C0 0.895431 0.895431 0 2 0H18C19.1046 0 20 0.895431 20 2V14C20 15.1046 19.1046 16 18 16H2C0.895431 16 0 15.1046 0 14V2ZM18 3.8685V14H2V3.86851L10 9.20184L18 3.8685ZM17.1972 2H2.80279L10 6.79814L17.1972 2Z" fill="#1F2E35" fill-opacity="0.8"></path>
  </symbol>
  <symbol fill="none" xmlns="http://www.w3.org/2000/svg" viewBox="0 0 100 100" id="product-description">
    <path d="M74.95 10.8722C55.7389 11.2306 42.3611 1.525 33.1028 1.7C23.8445 1.875 4.50281 7.55833 5.30003 50.1444C6.09725 92.7305 32.3667 98.4889 42.55 98.3C90.2278 97.4083 108.969 10.2361 74.95 10.8722V10.8722Z" fill="#EFEFEF"></path>
    <path d="M18.3491 9.46974L22.2774 5.54137L24.2416 7.50556L20.3132 11.4339L18.3491 9.46974Z" fill="#A4AFC1"></path>
    <path d="M7.05463 20.7623L10.985 16.832L12.9491 18.7962L9.01881 22.7265L7.05463 20.7623Z" fill="#A4AFC1"></path>
    <path d="M7.05798 7.01567L9.02217 5.05149L12.9525 8.98182L10.9883 10.946L7.05798 7.01567Z" fill="#A4AFC1"></path>
    <path d="M92.3028 42.8973C90.0056 42.8973 88.1362 41.0278 88.1362 38.7306C88.1362 36.4334 90.0056 34.5639 92.3028 34.5639C94.6001 34.5639 96.4695 36.4334 96.4695 38.7306C96.4695 41.0278 94.6001 42.8973 92.3028 42.8973ZM92.3028 37.3417C91.5389 37.3417 90.9139 37.9639 90.9139 38.7306C90.9139 39.4973 91.5389 40.1195 92.3028 40.1195C93.0667 40.1195 93.6917 39.4973 93.6917 38.7306C93.6917 37.9639 93.0667 37.3417 92.3028 37.3417Z" fill="#A4AFC1"></path>
    <path d="M78.4722 31.25H21.5278C19.9944 31.25 18.75 30.0056 18.75 28.4722V21.5278C18.75 19.9944 19.9944 18.75 21.5278 18.75H78.4722C80.0056 18.75 81.25 19.9944 81.25 21.5278V28.4722C81.25 30.0056 80.0056 31.25 78.4722 31.25Z" fill="#EE4248"></path>
    <path d="M75 56.25C71.5472 56.25 68.75 53.4528 68.75 50C68.75 46.5472 71.5472 43.75 75 43.75C78.4528 43.75 81.25 46.5472 81.25 50C81.25 53.4528 78.4528 56.25 75 56.25Z" fill="#EE4248"></path>
    <path d="M75 81.25C71.5472 81.25 68.75 78.4528 68.75 75C68.75 71.5472 71.5472 68.75 75 68.75C78.4528 68.75 81.25 71.5472 81.25 75C81.25 78.4528 78.4528 81.25 75 81.25Z" fill="#EE4248"></path>
    <path d="M25 28.4722V21.5278C25 19.9944 26.2444 18.75 27.7778 18.75H21.5278C19.9944 18.75 18.75 19.9944 18.75 21.5278V28.4722C18.75 30.0056 19.9944 31.25 21.5278 31.25H27.7778C26.2444 31.25 25 30.0056 25 28.4722Z" fill="#D5DBE1"></path>
    <path d="M75 50C75 47.6917 76.2639 45.7 78.125 44.6167C77.2028 44.0806 76.1444 43.75 75 43.75C71.5472 43.75 68.75 46.5472 68.75 50C68.75 53.4528 71.5472 56.25 75 56.25C76.1444 56.25 77.2028 55.9194 78.125 55.3833C76.2639 54.3 75 52.3083 75 50Z" fill="#EE4248"></path>
    <path d="M75 75C75 72.6917 76.2639 70.7 78.125 69.6167C77.2028 69.0806 76.1444 68.75 75 68.75C71.5472 68.75 68.75 71.5472 68.75 75C68.75 78.4528 71.5472 81.25 75 81.25C76.1444 81.25 77.2028 80.9194 78.125 80.3833C76.2639 79.3 75 77.3083 75 75Z" fill="#EE4248"></path>
    <path d="M78.4722 33.3334H21.5278C18.8472 33.3334 16.6667 31.1528 16.6667 28.4722V21.5278C16.6667 18.8472 18.8472 16.6667 21.5278 16.6667H78.4722C81.1528 16.6667 83.3333 18.8472 83.3333 21.5278V28.4722C83.3333 31.1528 81.1528 33.3334 78.4722 33.3334ZM21.5278 20.8334C21.1445 20.8334 20.8334 21.1445 20.8334 21.5278V28.4722C20.8334 28.8556 21.1445 29.1667 21.5278 29.1667H78.4722C78.8556 29.1667 79.1667 28.8556 79.1667 28.4722V21.5278C79.1667 21.1445 78.8556 20.8334 78.4722 20.8334H21.5278Z" fill="black"></path>
    <path d="M18.75 44.4444H59.0278V48.6111H18.75V44.4444Z" fill="black"></path>
    <path d="M18.75 52.7778H59.0278V56.9444H18.75V52.7778Z" fill="black"></path>
    <path d="M18.75 69.4444H59.0278V73.6111H18.75V69.4444Z" fill="black"></path>
    <path d="M18.75 77.7778H59.0278V81.9445H18.75V77.7778Z" fill="black"></path>
    <path d="M75 58.3334C70.4056 58.3334 66.6667 54.5945 66.6667 50.0001C66.6667 45.4056 70.4056 41.6667 75 41.6667C79.5945 41.6667 83.3334 45.4056 83.3334 50.0001C83.3334 54.5945 79.5945 58.3334 75 58.3334ZM75 45.8334C72.7028 45.8334 70.8334 47.7028 70.8334 50.0001C70.8334 52.2973 72.7028 54.1667 75 54.1667C77.2972 54.1667 79.1667 52.2973 79.1667 50.0001C79.1667 47.7028 77.2972 45.8334 75 45.8334Z" fill="black"></path>
    <path d="M75 83.3334C70.4056 83.3334 66.6667 79.5945 66.6667 75C66.6667 70.4056 70.4056 66.6667 75 66.6667C79.5945 66.6667 83.3334 70.4056 83.3334 75C83.3334 79.5945 79.5945 83.3334 75 83.3334ZM75 70.8334C72.7028 70.8334 70.8334 72.7028 70.8334 75C70.8334 77.2973 72.7028 79.1667 75 79.1667C77.2972 79.1667 79.1667 77.2973 79.1667 75C79.1667 72.7028 77.2972 70.8334 75 70.8334Z" fill="black"></path>
  </symbol>
  <symbol fill="none" xmlns="http://www.w3.org/2000/svg" viewBox="0 0 16 16" id="shuffle">
    <path fill-rule="evenodd" clip-rule="evenodd" d="M6.59 5.17L1.41 0L0 1.41L5.17 6.58L6.59 5.17ZM10.5 0L12.54 2.04L0 14.59L1.41 16L13.96 3.46L16 5.5V0H10.5ZM9.42 10.82L10.83 9.41L13.96 12.54L16 10.5V16H10.5L12.55 13.95L9.42 10.82Z" fill="#1F2E35" fill-opacity="0.8"></path>
  </symbol>
  <symbol fill="none" xmlns="http://www.w3.org/2000/svg" viewBox="0 0 20 19" id="Union">
    <path fill-rule="evenodd" clip-rule="evenodd" d="M2 9.58579H0L9.29289 0.292893C9.68342 -0.0976315 10.3166 -0.0976306 10.7071 0.292894L20 9.58579H18V17.5858C18 18.1381 17.5523 18.5858 17 18.5858H3C2.44772 18.5858 2 18.1381 2 17.5858V9.58579ZM4 16.5858H8V11.5858H12V16.5858H16V8.41421L10 2.41421L4 8.41421V16.5858Z" fill="#1F2E35" fill-opacity="0.8"></path>
  </symbol>
  <symbol fill="none" xmlns="http://www.w3.org/2000/svg" viewBox="0 0 100 100" id="verified1">
    <path d="M88.425 23.2695C88.425 42.4833 98.3778 55.6778 98.3778 64.9361C98.3778 74.1945 93.0556 93.6389 50.4639 93.6389C7.87225 93.6389 1.61948 67.4806 1.61948 57.2972C1.61948 9.61113 88.425 -10.7583 88.425 23.2695V23.2695Z" fill="#EFEFEF"></path>
    <path d="M9.71388 16.6667C8.79444 16.6667 7.90277 16.3639 7.16388 15.7889C6.2861 15.1055 5.72499 14.1194 5.58888 13.0167C5.44999 11.9139 5.74999 10.8222 6.43333 9.94165C7.11666 9.06387 8.10277 8.50276 9.20555 8.36665C10.3028 8.22221 11.4 8.52776 12.2805 9.2111C13.1611 9.89443 13.7194 10.8805 13.8555 11.9833C13.9944 13.0861 13.6917 14.1805 13.0111 15.0583C12.3278 15.9361 11.3417 16.4972 10.2389 16.6333C10.0639 16.6555 9.88888 16.6667 9.71388 16.6667V16.6667ZM9.72222 11.1111C9.66388 11.1111 9.60833 11.1139 9.54999 11.1222C8.79166 11.2167 8.24999 11.9139 8.34444 12.6722C8.43888 13.4305 9.13055 13.9694 9.89444 13.8778C10.6528 13.7833 11.1944 13.0861 11.1 12.3278C11.0111 11.6278 10.4139 11.1111 9.72222 11.1111V11.1111Z" fill="#A4AFC1"></path>
    <path d="M75.6944 75.6945H24.3056C21.2361 75.6945 18.75 73.2084 18.75 70.1389V28.4722H81.25V70.1389C81.25 73.2084 78.7639 75.6945 75.6944 75.6945Z" fill="#F3F3F1"></path>
    <path d="M81.25 28.4722H18.75V24.3056C18.75 21.2361 21.2361 18.75 24.3056 18.75H75.6944C78.7639 18.75 81.25 21.2361 81.25 24.3056V28.4722Z" fill="#EE4248"></path>
    <path d="M65.2778 81.25C74.099 81.25 81.25 74.099 81.25 65.2778C81.25 56.4566 74.099 49.3055 65.2778 49.3055C56.4566 49.3055 49.3055 56.4566 49.3055 65.2778C49.3055 74.099 56.4566 81.25 65.2778 81.25Z" fill="#EE4248"></path>
    <path d="M70.1389 38.1945H29.8611V50.6945H70.1667L70.1389 38.1945Z" fill="#EE4248"></path>
    <path d="M30.5556 18.75H24.3056C21.2361 18.75 18.75 21.2361 18.75 24.3056V28.4722H25V24.3056C25 21.2361 27.4861 18.75 30.5556 18.75Z" fill="#EE4248"></path>
    <path d="M55.5555 65.2778C55.5555 57.5278 61.0778 51.0694 68.4028 49.6167C67.3917 49.4167 66.3472 49.3055 65.2778 49.3055C56.4555 49.3055 49.3055 56.4555 49.3055 65.2778C49.3055 74.1 56.4555 81.25 65.2778 81.25C66.3472 81.25 67.3917 81.1417 68.4028 80.9389C61.0778 79.4861 55.5555 73.0278 55.5555 65.2778V65.2778Z" fill="#EE4248"></path>
    <path d="M29.8611 38.1945H36.1111V50.6945H29.8611V38.1945Z" fill="#EE4248"></path>
    <path d="M25 70.1389V28.4722H18.75V70.1389C18.75 73.2084 21.2361 75.6945 24.3056 75.6945H30.5556C27.4861 75.6945 25 73.2084 25 70.1389Z" fill="#D5DBE1"></path>
    <path d="M65.2777 83.3333C55.3222 83.3333 47.2222 75.2333 47.2222 65.2778C47.2222 55.3222 55.3222 47.2222 65.2777 47.2222C75.2333 47.2222 83.3333 55.3222 83.3333 65.2778C83.3333 75.2333 75.2333 83.3333 65.2777 83.3333ZM65.2777 51.3889C57.6194 51.3889 51.3888 57.6195 51.3888 65.2778C51.3888 72.9361 57.6194 79.1667 65.2777 79.1667C72.9361 79.1667 79.1666 72.9361 79.1666 65.2778C79.1666 57.6195 72.9361 51.3889 65.2777 51.3889Z" fill="black"></path>
    <path d="M62.5 72.9167C61.9472 72.9167 61.4166 72.6972 61.0277 72.3056L55.4722 66.75L58.4194 63.8028L62.4 67.7833L70.6555 58.35L73.7916 61.0944L64.0694 72.2056C63.6888 72.6389 63.1472 72.8972 62.5694 72.9167C62.5472 72.9167 62.5222 72.9167 62.5 72.9167V72.9167Z" fill="black"></path>
    <path d="M45.8612 52.7777H29.8612C28.7112 52.7777 27.7778 51.8444 27.7778 50.6944V38.1944C27.7778 37.0444 28.7112 36.1111 29.8612 36.1111H70.139C71.289 36.1111 72.2223 37.0444 72.2223 38.1944V41.4722H68.0556V40.2778H31.9445V48.6111H45.8612V52.7777Z" fill="black"></path>
    <path d="M27.9167 56.9167H43.8889V61.0833H27.9167V56.9167Z" fill="black"></path>
    <path d="M27.9167 65.25H43.1667V69.4167H27.9167V65.25Z" fill="black"></path>
    <path d="M43.3055 77.7778H24.3055C20.0916 77.7778 16.6666 74.3528 16.6666 70.1389V24.3056C16.6666 20.0917 20.0916 16.6667 24.3055 16.6667H75.6944C79.9083 16.6667 83.3333 20.0917 83.3333 24.3056V47H79.1666V24.3056C79.1666 22.3917 77.6083 20.8333 75.6944 20.8333H24.3055C22.3916 20.8333 20.8333 22.3917 20.8333 24.3056V70.1389C20.8333 72.0528 22.3916 73.6111 24.3055 73.6111H43.3055V77.7778Z" fill="black"></path>
    <path d="M18.75 26.3889H81.25V30.5556H18.75V26.3889Z" fill="black"></path>
  </symbol>
    <symbol fill="none" xmlns="http://www.w3.org/2000/svg" viewBox="0 0 25 19" id="menu">
    <path d="M25 2.71429V0H0V2.71429H25Z" fill="#455A64"></path>
    <path d="M25 5.42857V8.14286H8.33333V5.42857H25Z" fill="#455A64"></path>
    <path d="M25 13.5714V10.8571H0V13.5714H25Z" fill="#455A64"></path>
    <path d="M25 19V16.2857H8.33333V19H25Z" fill="#455A64"></path>
  </symbol>
</svg>